%TF.GenerationSoftware,KiCad,Pcbnew,7.0.8*%
%TF.CreationDate,2023-12-27T09:13:38+09:00*%
%TF.ProjectId,8088_RAM,38303838-5f52-4414-9d2e-6b696361645f,1.5*%
%TF.SameCoordinates,PX4c4b400PY8a48640*%
%TF.FileFunction,Soldermask,Top*%
%TF.FilePolarity,Negative*%
%FSLAX46Y46*%
G04 Gerber Fmt 4.6, Leading zero omitted, Abs format (unit mm)*
G04 Created by KiCad (PCBNEW 7.0.8) date 2023-12-27 09:13:38*
%MOMM*%
%LPD*%
G01*
G04 APERTURE LIST*
G04 Aperture macros list*
%AMRoundRect*
0 Rectangle with rounded corners*
0 $1 Rounding radius*
0 $2 $3 $4 $5 $6 $7 $8 $9 X,Y pos of 4 corners*
0 Add a 4 corners polygon primitive as box body*
4,1,4,$2,$3,$4,$5,$6,$7,$8,$9,$2,$3,0*
0 Add four circle primitives for the rounded corners*
1,1,$1+$1,$2,$3*
1,1,$1+$1,$4,$5*
1,1,$1+$1,$6,$7*
1,1,$1+$1,$8,$9*
0 Add four rect primitives between the rounded corners*
20,1,$1+$1,$2,$3,$4,$5,0*
20,1,$1+$1,$4,$5,$6,$7,0*
20,1,$1+$1,$6,$7,$8,$9,0*
20,1,$1+$1,$8,$9,$2,$3,0*%
G04 Aperture macros list end*
%ADD10R,1.600000X1.600000*%
%ADD11O,1.600000X1.600000*%
%ADD12R,1.500000X1.500000*%
%ADD13C,1.500000*%
%ADD14C,1.600000*%
%ADD15R,1.700000X1.700000*%
%ADD16O,1.700000X1.700000*%
%ADD17R,1.800000X1.800000*%
%ADD18C,1.800000*%
%ADD19C,3.200000*%
%ADD20RoundRect,0.375000X0.375000X1.625000X-0.375000X1.625000X-0.375000X-1.625000X0.375000X-1.625000X0*%
%ADD21RoundRect,0.375000X-1.625000X0.375000X-1.625000X-0.375000X1.625000X-0.375000X1.625000X0.375000X0*%
%ADD22C,1.400000*%
%ADD23C,0.900000*%
%ADD24C,0.605000*%
G04 APERTURE END LIST*
D10*
X16620000Y94090000D03*
D11*
X16620000Y91550000D03*
X16620000Y89010000D03*
X16620000Y86470000D03*
X16620000Y83930000D03*
X16620000Y81390000D03*
X16620000Y78850000D03*
X16620000Y76310000D03*
X16620000Y73770000D03*
X16620000Y71230000D03*
X16620000Y68690000D03*
X16620000Y66150000D03*
X16620000Y63610000D03*
X16620000Y61070000D03*
X16620000Y58530000D03*
X16620000Y55990000D03*
X16620000Y53450000D03*
X16620000Y50910000D03*
X16620000Y48370000D03*
X16620000Y45830000D03*
X31860000Y45830000D03*
X31860000Y48370000D03*
X31860000Y50910000D03*
X31860000Y53450000D03*
X31860000Y55990000D03*
X31860000Y58530000D03*
X31860000Y61070000D03*
X31860000Y63610000D03*
X31860000Y66150000D03*
X31860000Y68690000D03*
X31860000Y71230000D03*
X31860000Y73770000D03*
X31860000Y76310000D03*
X31860000Y78850000D03*
X31860000Y81390000D03*
X31860000Y83930000D03*
X31860000Y86470000D03*
X31860000Y89010000D03*
X31860000Y91550000D03*
X31860000Y94090000D03*
D12*
X94550000Y68590000D03*
D13*
X94550000Y62090000D03*
X90050000Y68590000D03*
X90050000Y62090000D03*
D14*
X5710000Y69180000D03*
D11*
X5710000Y61560000D03*
D15*
X4640000Y82720000D03*
D16*
X4640000Y80180000D03*
X4640000Y77640000D03*
D17*
X72369400Y94062000D03*
D18*
X74909400Y94062000D03*
D15*
X17267000Y16000000D03*
D16*
X17267000Y18540000D03*
X19807000Y16000000D03*
X19807000Y18540000D03*
X22347000Y16000000D03*
X22347000Y18540000D03*
X24887000Y16000000D03*
X24887000Y18540000D03*
X27427000Y16000000D03*
X27427000Y18540000D03*
X29967000Y16000000D03*
X29967000Y18540000D03*
D10*
X13836000Y49894000D03*
D11*
X13836000Y52434000D03*
X13836000Y54974000D03*
X13836000Y57514000D03*
X13836000Y60054000D03*
X13836000Y62594000D03*
X13836000Y65134000D03*
X13836000Y67674000D03*
X13836000Y70214000D03*
D14*
X91545000Y54518000D03*
X89045000Y54518000D03*
D15*
X35047000Y21080000D03*
D16*
X32507000Y21080000D03*
X35047000Y23620000D03*
X32507000Y23620000D03*
X35047000Y26160000D03*
X32507000Y26160000D03*
X35047000Y28700000D03*
X32507000Y28700000D03*
X35047000Y31240000D03*
X32507000Y31240000D03*
X35047000Y33780000D03*
X32507000Y33780000D03*
D10*
X52952000Y74786000D03*
D11*
X52952000Y72246000D03*
X52952000Y69706000D03*
X52952000Y67166000D03*
X52952000Y64626000D03*
X52952000Y62086000D03*
X52952000Y59546000D03*
X52952000Y57006000D03*
X52952000Y54466000D03*
D14*
X8756000Y69198000D03*
D11*
X8756000Y61578000D03*
D14*
X34490000Y94090000D03*
X34490000Y91590000D03*
D15*
X8756000Y54466000D03*
D16*
X8756000Y51926000D03*
X8756000Y49386000D03*
X8756000Y46846000D03*
X8756000Y44306000D03*
X8756000Y41766000D03*
D10*
X60660000Y59020000D03*
D11*
X63200000Y59020000D03*
X65740000Y59020000D03*
X68280000Y59020000D03*
X70820000Y59020000D03*
X73360000Y59020000D03*
X75900000Y59020000D03*
X78440000Y59020000D03*
X80980000Y59020000D03*
X83520000Y59020000D03*
X83520000Y66640000D03*
X80980000Y66640000D03*
X78440000Y66640000D03*
X75900000Y66640000D03*
X73360000Y66640000D03*
X70820000Y66640000D03*
X68280000Y66640000D03*
X65740000Y66640000D03*
X63200000Y66640000D03*
X60660000Y66640000D03*
D15*
X75010000Y8560000D03*
D16*
X77550000Y8560000D03*
X80090000Y8560000D03*
X82630000Y8560000D03*
X85170000Y8560000D03*
X87710000Y8560000D03*
D10*
X73526000Y20938000D03*
D11*
X73526000Y23478000D03*
X73526000Y26018000D03*
X73526000Y28558000D03*
X73526000Y31098000D03*
X73526000Y33638000D03*
X73526000Y36178000D03*
X73526000Y38718000D03*
X73526000Y41258000D03*
D14*
X47618000Y63819000D03*
X47618000Y61319000D03*
D19*
X5080000Y93920000D03*
D14*
X47882000Y85927000D03*
X47882000Y83427000D03*
X38474000Y27034000D03*
D11*
X38474000Y19414000D03*
D14*
X76825000Y87120000D03*
D11*
X69205000Y87120000D03*
D10*
X37458000Y63864000D03*
D11*
X37458000Y61324000D03*
X37458000Y58784000D03*
X37458000Y56244000D03*
X37458000Y53704000D03*
X37458000Y51164000D03*
X37458000Y48624000D03*
X45078000Y48624000D03*
X45078000Y51164000D03*
X45078000Y53704000D03*
X45078000Y56244000D03*
X45078000Y58784000D03*
X45078000Y61324000D03*
X45078000Y63864000D03*
D19*
X93920000Y5080000D03*
X93920000Y93920000D03*
D15*
X29967000Y38860000D03*
D16*
X29967000Y36320000D03*
X27427000Y38860000D03*
X27427000Y36320000D03*
X24887000Y38860000D03*
X24887000Y36320000D03*
X22347000Y38860000D03*
X22347000Y36320000D03*
X19807000Y38860000D03*
X19807000Y36320000D03*
X17267000Y38860000D03*
X17267000Y36320000D03*
D20*
X90940000Y85170000D03*
X84940000Y85170000D03*
D21*
X87890000Y90570000D03*
D10*
X76315000Y51418000D03*
D11*
X76315000Y48878000D03*
X76315000Y46338000D03*
X76315000Y43798000D03*
X76315000Y41258000D03*
X76315000Y38718000D03*
X76315000Y36178000D03*
X76315000Y33638000D03*
X76315000Y31098000D03*
X76315000Y28558000D03*
X76315000Y26018000D03*
X76315000Y23478000D03*
X76315000Y20938000D03*
X76315000Y18398000D03*
X76315000Y15858000D03*
X76315000Y13318000D03*
X91555000Y13318000D03*
X91555000Y15858000D03*
X91555000Y18398000D03*
X91555000Y20938000D03*
X91555000Y23478000D03*
X91555000Y26018000D03*
X91555000Y28558000D03*
X91555000Y31098000D03*
X91555000Y33638000D03*
X91555000Y36178000D03*
X91555000Y38718000D03*
X91555000Y41258000D03*
X91555000Y43798000D03*
X91555000Y46338000D03*
X91555000Y48878000D03*
X91555000Y51418000D03*
D14*
X57510000Y78780000D03*
X57510000Y76280000D03*
D15*
X39308400Y93590000D03*
D16*
X41848400Y93590000D03*
X44388400Y93590000D03*
X46928400Y93590000D03*
X49468400Y93590000D03*
X52008400Y93590000D03*
D10*
X37722000Y85967000D03*
D11*
X37722000Y83427000D03*
X37722000Y80887000D03*
X37722000Y78347000D03*
X37722000Y75807000D03*
X37722000Y73267000D03*
X37722000Y70727000D03*
X45342000Y70727000D03*
X45342000Y73267000D03*
X45342000Y75807000D03*
X45342000Y78347000D03*
X45342000Y80887000D03*
X45342000Y83427000D03*
X45342000Y85967000D03*
D17*
X59669400Y94062000D03*
D18*
X62209400Y94062000D03*
D14*
X76825000Y83945000D03*
D11*
X69205000Y83945000D03*
D22*
X94780000Y56110000D03*
X94780000Y53570000D03*
D14*
X28951000Y26160000D03*
X28951000Y28660000D03*
X95770000Y28380000D03*
D11*
X95770000Y20760000D03*
D14*
X68700000Y54762000D03*
X66200000Y54762000D03*
X64760000Y83960000D03*
D11*
X57140000Y83960000D03*
D10*
X53455000Y51672000D03*
D11*
X53455000Y49132000D03*
X53455000Y46592000D03*
X53455000Y44052000D03*
X53455000Y41512000D03*
X53455000Y38972000D03*
X53455000Y36432000D03*
X53455000Y33892000D03*
X53455000Y31352000D03*
X53455000Y28812000D03*
X53455000Y26272000D03*
X53455000Y23732000D03*
X53455000Y21192000D03*
X53455000Y18652000D03*
X53455000Y16112000D03*
X53455000Y13572000D03*
X68695000Y13572000D03*
X68695000Y16112000D03*
X68695000Y18652000D03*
X68695000Y21192000D03*
X68695000Y23732000D03*
X68695000Y26272000D03*
X68695000Y28812000D03*
X68695000Y31352000D03*
X68695000Y33892000D03*
X68695000Y36432000D03*
X68695000Y38972000D03*
X68695000Y41512000D03*
X68695000Y44052000D03*
X68695000Y46592000D03*
X68695000Y49132000D03*
X68695000Y51672000D03*
D17*
X66019400Y94062000D03*
D18*
X68559400Y94062000D03*
D14*
X57140000Y87130000D03*
D11*
X64760000Y87130000D03*
D19*
X5080000Y5080000D03*
D14*
X57560000Y66640000D03*
X57560000Y64140000D03*
D10*
X79330000Y93690000D03*
D14*
X81830000Y93690000D03*
D10*
X95770000Y13060000D03*
D11*
X95770000Y18140000D03*
D15*
X12187000Y33780000D03*
D16*
X14727000Y33780000D03*
X12187000Y31240000D03*
X14727000Y31240000D03*
X12187000Y28700000D03*
X14727000Y28700000D03*
X12187000Y26160000D03*
X14727000Y26160000D03*
X12187000Y23620000D03*
X14727000Y23620000D03*
X12187000Y21080000D03*
X14727000Y21080000D03*
D10*
X60650000Y71170000D03*
D11*
X63190000Y71170000D03*
X65730000Y71170000D03*
X68270000Y71170000D03*
X70810000Y71170000D03*
X73350000Y71170000D03*
X75890000Y71170000D03*
X78430000Y71170000D03*
X80970000Y71170000D03*
X83510000Y71170000D03*
X83510000Y78790000D03*
X80970000Y78790000D03*
X78430000Y78790000D03*
X75890000Y78790000D03*
X73350000Y78790000D03*
X70810000Y78790000D03*
X68270000Y78790000D03*
X65730000Y78790000D03*
X63190000Y78790000D03*
X60650000Y78790000D03*
D15*
X89840000Y74890000D03*
D16*
X92380000Y74890000D03*
X94920000Y74890000D03*
D10*
X13836000Y73770000D03*
D11*
X13836000Y76310000D03*
X13836000Y78850000D03*
X13836000Y81390000D03*
X13836000Y83930000D03*
X13836000Y86470000D03*
X13836000Y89010000D03*
X13836000Y91550000D03*
X13836000Y94090000D03*
D14*
X18283000Y26160000D03*
X18283000Y28660000D03*
D15*
X11420000Y4570000D03*
D16*
X11420000Y7110000D03*
X13960000Y4570000D03*
X13960000Y7110000D03*
X16500000Y4570000D03*
X16500000Y7110000D03*
X19040000Y4570000D03*
X19040000Y7110000D03*
X21580000Y4570000D03*
X21580000Y7110000D03*
X24120000Y4570000D03*
X24120000Y7110000D03*
X26660000Y4570000D03*
X26660000Y7110000D03*
X29200000Y4570000D03*
X29200000Y7110000D03*
X31740000Y4570000D03*
X31740000Y7110000D03*
X34280000Y4570000D03*
X34280000Y7110000D03*
X36820000Y4570000D03*
X36820000Y7110000D03*
X39360000Y4570000D03*
X39360000Y7110000D03*
X41900000Y4570000D03*
X41900000Y7110000D03*
X44440000Y4570000D03*
X44440000Y7110000D03*
X46980000Y4570000D03*
X46980000Y7110000D03*
X49520000Y4570000D03*
X49520000Y7110000D03*
X52060000Y4570000D03*
X52060000Y7110000D03*
X54600000Y4570000D03*
X54600000Y7110000D03*
X57140000Y4570000D03*
X57140000Y7110000D03*
X59680000Y4570000D03*
X59680000Y7110000D03*
X62220000Y4570000D03*
X62220000Y7110000D03*
X64760000Y4570000D03*
X64760000Y7110000D03*
X67300000Y4570000D03*
X67300000Y7110000D03*
X69840000Y4570000D03*
X69840000Y7110000D03*
D23*
X75050000Y54762000D03*
X46980000Y27030000D03*
X64760000Y80940000D03*
X54910000Y85930000D03*
X54910000Y96320000D03*
X52970000Y80940000D03*
X7124900Y26200000D03*
X87390000Y58673016D03*
X76830000Y80940000D03*
X11000000Y96320000D03*
X54910000Y80940000D03*
X3980000Y73780000D03*
X50160000Y63820000D03*
D24*
X63020000Y84140000D03*
X56070000Y50780000D03*
X39230000Y51200000D03*
X19240000Y1030000D03*
X94800000Y84280000D03*
X18450000Y50560000D03*
X41154000Y78400000D03*
X81270000Y83920000D03*
X80480000Y21130000D03*
X55100000Y58360000D03*
X83320000Y21480000D03*
X80830000Y3070000D03*
X21990000Y59210000D03*
X66360000Y44720000D03*
X50050000Y40950000D03*
X57560000Y31460000D03*
X44920000Y28720000D03*
X62470000Y31340000D03*
X63810000Y1150000D03*
X13836004Y47736000D03*
X83860000Y64220000D03*
X20370000Y94400000D03*
X39200000Y47840000D03*
X80860000Y28140000D03*
X87870000Y95890000D03*
X25410000Y54280000D03*
X84720000Y15450000D03*
X38110000Y1100000D03*
X21990000Y54890000D03*
X62020000Y75600000D03*
X11570000Y37730000D03*
X29170000Y21560000D03*
X40590000Y85390000D03*
X63300000Y63580000D03*
X60830000Y60820000D03*
X29800000Y63980000D03*
X21990000Y65470000D03*
X28030000Y63960000D03*
X88930000Y18480000D03*
X96840000Y8920000D03*
X37750000Y28760000D03*
X83160000Y33700000D03*
X23890000Y22560000D03*
X50000000Y36670000D03*
X55850000Y46630000D03*
X78820000Y69150000D03*
X30440000Y1150000D03*
X24600000Y75670000D03*
X90350000Y11000000D03*
X54990000Y78870000D03*
X25170000Y82540000D03*
X73460000Y44870000D03*
X30110000Y71220000D03*
X23500000Y71370000D03*
X65760000Y60920000D03*
X83410000Y23990000D03*
X66400000Y28800000D03*
X88900000Y36090000D03*
X78290000Y64540000D03*
X20440000Y9600000D03*
X96430000Y59000000D03*
X63160000Y60810000D03*
X16680000Y43830000D03*
X61460000Y46530000D03*
X88800000Y43800000D03*
X68360000Y75810000D03*
X45780000Y1270000D03*
X5230000Y87390000D03*
X57730000Y33560000D03*
X6020000Y57900000D03*
X59610000Y22560000D03*
X82410000Y74510000D03*
X24810000Y21460000D03*
X39530000Y72090000D03*
X56070000Y52350000D03*
X93450000Y30160000D03*
X55820000Y44070000D03*
X43446480Y62705800D03*
X43342200Y64513458D03*
X88740000Y23970000D03*
X25090000Y79890000D03*
X57750000Y26480000D03*
X41190000Y16700000D03*
X73960000Y75560000D03*
X88720000Y21150000D03*
X62360000Y18630000D03*
X39090000Y57520000D03*
X82160000Y89110000D03*
X89440000Y71670000D03*
X66250000Y48880000D03*
X59810000Y18700000D03*
X72030000Y15590000D03*
X43170000Y70680000D03*
X74450000Y89820000D03*
X48230000Y10980000D03*
X68770000Y89530000D03*
X56170000Y48510000D03*
X40650000Y10160000D03*
X27620000Y86590000D03*
X47420000Y75790000D03*
X51930000Y19980000D03*
X51770000Y23740000D03*
X93630000Y46320000D03*
X28030000Y71400000D03*
X93630000Y38510000D03*
X44200000Y21910000D03*
X23500000Y65570000D03*
X42720000Y85390000D03*
X34740000Y16650000D03*
X24370000Y31860000D03*
X17040000Y23250000D03*
X14900000Y35680000D03*
X65640000Y75780000D03*
X62400000Y28530000D03*
X34340000Y9610000D03*
X6530000Y47240000D03*
X49620000Y44920000D03*
X81230000Y64390000D03*
X73170000Y47190000D03*
X70800000Y63860000D03*
X65470000Y52140000D03*
X37460000Y45230000D03*
X88500000Y31140000D03*
X70240000Y47170000D03*
X58320000Y13572000D03*
X50020000Y48540000D03*
X81330000Y13318000D03*
X57820000Y18730000D03*
X88730000Y38470000D03*
X42840000Y47790000D03*
X71930000Y1170000D03*
X53680000Y1030000D03*
X1490000Y47420000D03*
X45130000Y45220000D03*
X22390000Y49270000D03*
X70820000Y26640000D03*
X20410000Y27010000D03*
X27620000Y94330000D03*
X88340000Y28330000D03*
X73390000Y48990000D03*
X73420000Y4870000D03*
X83330000Y38400000D03*
X73410000Y17860000D03*
X83240000Y57170000D03*
X23570000Y88680000D03*
X43710000Y10800000D03*
X88870000Y33340000D03*
X62430000Y33720000D03*
X22340000Y46640000D03*
X16690000Y30360000D03*
X14730000Y15030000D03*
X14950000Y10760000D03*
X22990000Y27190000D03*
X88980000Y2100000D03*
X83370000Y47560000D03*
X70890000Y23660000D03*
X17310000Y41030000D03*
X84670000Y18120000D03*
X5120000Y10440000D03*
X42020000Y75800000D03*
X47410000Y57100000D03*
X45870000Y67210000D03*
X26720000Y49540000D03*
X50450000Y80120000D03*
X39730000Y61450000D03*
X65170000Y28820000D03*
X55560000Y71020000D03*
X45060000Y24210000D03*
X22960000Y33720000D03*
X30460000Y23800000D03*
X80640000Y24770000D03*
X59620000Y53820000D03*
X88760000Y40990000D03*
X73670000Y63750000D03*
X36250000Y19290000D03*
X25200000Y78220000D03*
X7020000Y32570000D03*
X21750000Y33740000D03*
X51940000Y30470000D03*
X37850000Y67070000D03*
X55590000Y36500000D03*
X62430000Y26940000D03*
X95150000Y50790000D03*
X13850000Y45040000D03*
X39570000Y63170000D03*
X88510000Y51400000D03*
X83150000Y28280000D03*
X83010000Y30980000D03*
X48190000Y19770000D03*
X18910000Y55880000D03*
X48180000Y70720000D03*
X49530000Y75910000D03*
X93660000Y20080000D03*
X39680000Y64550000D03*
X6360000Y36720000D03*
X62150000Y13510000D03*
X86810000Y76290000D03*
X52440000Y10650000D03*
X24700000Y91170000D03*
X21740000Y27250000D03*
X50193001Y83427002D03*
X40520000Y81320000D03*
X95540000Y78280000D03*
X23080000Y85240000D03*
X44450000Y19360000D03*
X23460000Y62380000D03*
X55950000Y61230000D03*
X64210000Y15860000D03*
X66290000Y41850000D03*
X21960000Y62130000D03*
X96750000Y71890000D03*
X59540000Y24490000D03*
X88980000Y47670000D03*
X41220000Y20050000D03*
X24370000Y33490000D03*
X77070000Y10860000D03*
X24340000Y27180000D03*
X73320000Y51570000D03*
X21960000Y68940000D03*
X72389998Y13318000D03*
X76940000Y92300000D03*
X66390000Y43450000D03*
X83330000Y43660000D03*
X90470000Y58320000D03*
X51830000Y28430000D03*
X62110000Y15790000D03*
X48220000Y23910000D03*
X62260000Y20970000D03*
X28529990Y33490000D03*
X45570000Y41170000D03*
X66710000Y18570000D03*
X36400000Y57530000D03*
X85740000Y71120000D03*
X49500000Y12190000D03*
X49540000Y29720000D03*
X65750000Y69330000D03*
X85860600Y62870000D03*
X58960000Y69310000D03*
X65740000Y62870000D03*
X8330000Y33670000D03*
X55240000Y76860000D03*
X85970000Y22384800D03*
X79930000Y33650000D03*
X82240000Y53690000D03*
X82520000Y36180000D03*
X51650600Y32300000D03*
X72930000Y53700000D03*
X39280000Y31730000D03*
X39310000Y38930000D03*
X14840000Y45660000D03*
X51950000Y45630000D03*
X62130000Y41380000D03*
X49940000Y53880000D03*
X41270000Y62420000D03*
X41660000Y24710000D03*
X41660000Y51170000D03*
X23570000Y24230000D03*
X33970000Y60010000D03*
X23650000Y59920000D03*
X57840000Y44050000D03*
X34970000Y73430000D03*
X65480000Y31350000D03*
X15910000Y41470000D03*
X34970000Y65360000D03*
X65450000Y40170000D03*
X34950000Y41980000D03*
X12340000Y12430000D03*
X85291700Y57230000D03*
X26360000Y55990000D03*
X26960000Y20970000D03*
X23520000Y21080000D03*
X21270000Y45440000D03*
X21270000Y86450000D03*
X21150000Y21080000D03*
X9030000Y96820000D03*
X6170000Y20006056D03*
X3010000Y54470000D03*
X33349400Y13380500D03*
X25490000Y48350000D03*
X24890000Y13359400D03*
X42200000Y53270000D03*
X22330000Y22260000D03*
X9540000Y22260000D03*
X11018900Y44310000D03*
X11000000Y53610000D03*
X41980000Y73270000D03*
X21260000Y12260000D03*
X31740000Y12260000D03*
X39360000Y17860600D03*
X82000000Y57260000D03*
X48930000Y17860600D03*
X29200000Y11660000D03*
X19310000Y12370000D03*
X5650000Y17580000D03*
X22340000Y12790600D03*
X30650000Y12790600D03*
X39890000Y30920000D03*
X39890600Y13210000D03*
X77540000Y3260000D03*
X50460000Y13210000D03*
X41660000Y22190000D03*
X46800003Y68090003D03*
X41910000Y11280000D03*
X52180000Y83960000D03*
X33880000Y11690000D03*
X42810000Y68090000D03*
X51060000Y78330000D03*
X51120000Y16050000D03*
X77150000Y68110000D03*
X29970000Y10640000D03*
X73350000Y68170000D03*
X38590000Y10280000D03*
X44650000Y31400000D03*
X44260000Y41060000D03*
X65850000Y30170000D03*
X80980000Y31110000D03*
X51700000Y24810000D03*
X65210000Y27710000D03*
X22340000Y25616656D03*
X58400000Y59310000D03*
X73350000Y61980000D03*
X59050000Y27710000D03*
X48200000Y26300000D03*
X65320000Y25200000D03*
X48190000Y40535800D03*
X63210000Y23730000D03*
X25395000Y22875000D03*
X84270000Y19460000D03*
X69470000Y77130000D03*
X21940000Y71530000D03*
X83960000Y60910000D03*
X68720000Y61520000D03*
X22170000Y77070000D03*
X12960000Y37450000D03*
X66070000Y34300000D03*
X13458900Y38890000D03*
X75900000Y64850000D03*
X86510000Y16640000D03*
X13980000Y37770000D03*
X20530000Y30600000D03*
X43350000Y16730000D03*
X43070600Y30770000D03*
X66620000Y17140000D03*
X85680000Y67990000D03*
X24750000Y63610000D03*
X64420000Y13550000D03*
X79070000Y40670000D03*
X79680000Y14440000D03*
X73620000Y15860000D03*
X59650000Y16120000D03*
X78290000Y56290000D03*
X28620000Y61080000D03*
X59660000Y10780000D03*
X50150000Y35340000D03*
X73620000Y11670000D03*
X75920000Y56280000D03*
X28620000Y82390000D03*
X67240000Y82020000D03*
X66610000Y49980000D03*
X34120000Y57010000D03*
X34120000Y35590000D03*
X41800000Y82090000D03*
X19100000Y58530000D03*
X41800000Y89270000D03*
X55690000Y31790000D03*
X34120000Y51820000D03*
X55680000Y19880000D03*
X19270000Y90350000D03*
X35340000Y18680000D03*
X19304615Y43621539D03*
X31620000Y44020600D03*
X18300000Y92700000D03*
X64760000Y90930000D03*
X37770000Y17330000D03*
X64340000Y18100000D03*
X64340000Y46580000D03*
X42540000Y21120000D03*
X43500000Y54090000D03*
X39330000Y88510000D03*
X46930000Y88510000D03*
X58230000Y15520000D03*
X58510000Y49132000D03*
X64240000Y48990000D03*
X35340000Y14500000D03*
X48160000Y73640000D03*
X78430000Y72950000D03*
X48160000Y79880000D03*
X34144999Y68815001D03*
X33840000Y83920000D03*
X34910000Y74570000D03*
X68270000Y73770000D03*
X34910000Y86530000D03*
X66510000Y88250000D03*
X40840000Y25680000D03*
X45590000Y25650000D03*
X44450000Y12260000D03*
X32690000Y12260000D03*
X43140000Y44570000D03*
X43960000Y23600000D03*
X38470000Y23610000D03*
X35670000Y44570000D03*
X35650000Y82380000D03*
X20050000Y90950000D03*
X9000000Y18540000D03*
X50350000Y43490000D03*
X50360000Y46610000D03*
X26660000Y11040000D03*
X6070000Y42980000D03*
X20050000Y43200000D03*
X18630000Y11760000D03*
X57140000Y29639400D03*
X29150600Y80980000D03*
X45650000Y30330000D03*
X45650000Y36330000D03*
X27230000Y83940000D03*
X61660000Y36540000D03*
X66040000Y36540000D03*
X26740000Y58350000D03*
X57590000Y37860000D03*
X29700000Y58350000D03*
X26680000Y78820000D03*
X37960000Y34380000D03*
X56410000Y34060000D03*
X37970000Y38970000D03*
X33105568Y38970000D03*
X25670000Y76300000D03*
X56440000Y39220000D03*
X25840000Y59840000D03*
X33740000Y58290000D03*
X10920000Y16000000D03*
X10920000Y42370000D03*
X17780000Y11520000D03*
X20650000Y89010000D03*
X20650000Y42730000D03*
X25240000Y10509400D03*
X82040000Y15340000D03*
X27870000Y13890000D03*
X9810000Y94090000D03*
X81980000Y50130000D03*
X19806996Y13880002D03*
X10080000Y13930000D03*
X36400000Y89920000D03*
X22700000Y50900000D03*
X22670000Y82710000D03*
X41690000Y80890000D03*
X41392000Y68070000D03*
X59700000Y26300000D03*
X59670000Y51430000D03*
X84230000Y26020000D03*
X43430000Y55710000D03*
X84230000Y56370000D03*
X43440000Y58790000D03*
X40040000Y53710000D03*
X40040000Y48770000D03*
X24180000Y46700000D03*
X47990000Y45970000D03*
X23560000Y78250000D03*
X43520000Y86730000D03*
M02*
