M48
; DRILL file {KiCad 7.0.8} date Wed Dec 27 09:13:36 2023
; FORMAT={-:-/ absolute / metric / decimal}
; #@! TF.CreationDate,2023-12-27T09:13:36+09:00
; #@! TF.GenerationSoftware,Kicad,Pcbnew,7.0.8
; #@! TF.FileFunction,MixedPlating,1,2
FMAT,2
METRIC
; #@! TA.AperFunction,Plated,PTH,ViaDrill
T1C0.300
; #@! TA.AperFunction,Plated,PTH,ViaDrill
T2C0.500
; #@! TA.AperFunction,Plated,PTH,ComponentDrill
T3C0.800
; #@! TA.AperFunction,Plated,PTH,ComponentDrill
T4C0.900
; #@! TA.AperFunction,Plated,PTH,ComponentDrill
T5C1.000
; #@! TA.AperFunction,NonPlated,NPTH,ComponentDrill
T6C3.200
%
G90
G05
T1
X1.49Y47.42
X3.01Y54.47
X5.12Y10.44
X5.23Y87.39
X5.65Y17.58
X6.02Y57.9
X6.07Y42.98
X6.17Y20.006
X6.36Y36.72
X6.53Y47.24
X7.02Y32.57
X8.33Y33.67
X9.0Y18.54
X9.03Y96.82
X9.54Y22.26
X9.81Y94.09
X10.08Y13.93
X10.92Y42.37
X10.92Y16.0
X11.0Y53.61
X11.019Y44.31
X11.57Y37.73
X12.34Y12.43
X12.96Y37.45
X13.459Y38.89
X13.836Y47.736
X13.85Y45.04
X13.98Y37.77
X14.73Y15.03
X14.84Y45.66
X14.9Y35.68
X14.95Y10.76
X15.91Y41.47
X16.68Y43.83
X16.69Y30.36
X17.04Y23.25
X17.31Y41.03
X17.78Y11.52
X18.3Y92.7
X18.45Y50.56
X18.63Y11.76
X18.91Y55.88
X19.1Y58.53
X19.24Y1.03
X19.27Y90.35
X19.305Y43.622
X19.31Y12.37
X19.807Y13.88
X20.05Y90.95
X20.05Y43.2
X20.37Y94.4
X20.41Y27.01
X20.44Y9.6
X20.53Y30.6
X20.65Y89.01
X20.65Y42.73
X21.15Y21.08
X21.26Y12.26
X21.27Y86.45
X21.27Y45.44
X21.74Y27.25
X21.75Y33.74
X21.94Y71.53
X21.96Y68.94
X21.96Y62.13
X21.99Y65.47
X21.99Y59.21
X21.99Y54.89
X22.17Y77.07
X22.33Y22.26
X22.34Y46.64
X22.34Y25.617
X22.34Y12.791
X22.39Y49.27
X22.67Y82.71
X22.7Y50.9
X22.96Y33.72
X22.99Y27.19
X23.08Y85.24
X23.46Y62.38
X23.5Y71.37
X23.5Y65.57
X23.52Y21.08
X23.56Y78.25
X23.57Y88.68
X23.57Y24.23
X23.65Y59.92
X23.89Y22.56
X24.18Y46.7
X24.34Y27.18
X24.37Y33.49
X24.37Y31.86
X24.6Y75.67
X24.7Y91.17
X24.75Y63.61
X24.81Y21.46
X24.89Y13.359
X25.09Y79.89
X25.17Y82.54
X25.2Y78.22
X25.24Y10.509
X25.395Y22.875
X25.41Y54.28
X25.49Y48.35
X25.67Y76.3
X25.84Y59.84
X26.36Y55.99
X26.66Y11.04
X26.68Y78.82
X26.72Y49.54
X26.74Y58.35
X26.96Y20.97
X27.23Y83.94
X27.62Y94.33
X27.62Y86.59
X27.87Y13.89
X28.03Y71.4
X28.03Y63.96
X28.53Y33.49
X28.62Y82.39
X28.62Y61.08
X29.151Y80.98
X29.17Y21.56
X29.2Y11.66
X29.7Y58.35
X29.8Y63.98
X29.97Y10.64
X30.11Y71.22
X30.44Y1.15
X30.46Y23.8
X30.65Y12.791
X31.62Y44.021
X31.74Y12.26
X32.69Y12.26
X33.106Y38.97
X33.349Y13.38
X33.74Y58.29
X33.84Y83.92
X33.88Y11.69
X33.97Y60.01
X34.12Y57.01
X34.12Y51.82
X34.12Y35.59
X34.145Y68.815
X34.34Y9.61
X34.74Y16.65
X34.91Y86.53
X34.91Y74.57
X34.95Y41.98
X34.97Y73.43
X34.97Y65.36
X35.34Y18.68
X35.34Y14.5
X35.65Y82.38
X35.67Y44.57
X36.25Y19.29
X36.4Y89.92
X36.4Y57.53
X37.46Y45.23
X37.75Y28.76
X37.77Y17.33
X37.85Y67.07
X37.96Y34.38
X37.97Y38.97
X38.11Y1.1
X38.47Y23.61
X38.59Y10.28
X39.09Y57.52
X39.2Y47.84
X39.23Y51.2
X39.28Y31.73
X39.31Y38.93
X39.33Y88.51
X39.36Y17.861
X39.53Y72.09
X39.57Y63.17
X39.68Y64.55
X39.73Y61.45
X39.89Y30.92
X39.891Y13.21
X40.04Y53.71
X40.04Y48.77
X40.52Y81.32
X40.59Y85.39
X40.65Y10.16
X40.84Y25.68
X41.154Y78.4
X41.19Y16.7
X41.22Y20.05
X41.27Y62.42
X41.392Y68.07
X41.66Y51.17
X41.66Y24.71
X41.66Y22.19
X41.69Y80.89
X41.8Y89.27
X41.8Y82.09
X41.91Y11.28
X41.98Y73.27
X42.02Y75.8
X42.2Y53.27
X42.54Y21.12
X42.72Y85.39
X42.81Y68.09
X42.84Y47.79
X43.071Y30.77
X43.14Y44.57
X43.17Y70.68
X43.342Y64.513
X43.35Y16.73
X43.43Y55.71
X43.44Y58.79
X43.446Y62.706
X43.5Y54.09
X43.52Y86.73
X43.71Y10.8
X43.96Y23.6
X44.2Y21.91
X44.26Y41.06
X44.45Y19.36
X44.45Y12.26
X44.65Y31.4
X44.92Y28.72
X45.06Y24.21
X45.13Y45.22
X45.57Y41.17
X45.59Y25.65
X45.65Y36.33
X45.65Y30.33
X45.78Y1.27
X45.87Y67.21
X46.8Y68.09
X46.93Y88.51
X47.41Y57.1
X47.42Y75.79
X47.99Y45.97
X48.16Y79.88
X48.16Y73.64
X48.18Y70.72
X48.19Y40.536
X48.19Y19.77
X48.2Y26.3
X48.22Y23.91
X48.23Y10.98
X48.93Y17.861
X49.5Y12.19
X49.53Y75.91
X49.54Y29.72
X49.62Y44.92
X49.94Y53.88
X50.0Y36.67
X50.02Y48.54
X50.05Y40.95
X50.15Y35.34
X50.193Y83.427
X50.35Y43.49
X50.36Y46.61
X50.45Y80.12
X50.46Y13.21
X51.06Y78.33
X51.12Y16.05
X51.651Y32.3
X51.7Y24.81
X51.77Y23.74
X51.83Y28.43
X51.93Y19.98
X51.94Y30.47
X51.95Y45.63
X52.18Y83.96
X52.44Y10.65
X53.68Y1.03
X54.99Y78.87
X55.1Y58.36
X55.24Y76.86
X55.56Y71.02
X55.59Y36.5
X55.68Y19.88
X55.69Y31.79
X55.82Y44.07
X55.85Y46.63
X55.95Y61.23
X56.07Y52.35
X56.07Y50.78
X56.17Y48.51
X56.41Y34.06
X56.44Y39.22
X57.14Y29.639
X57.56Y31.46
X57.59Y37.86
X57.73Y33.56
X57.75Y26.48
X57.82Y18.73
X57.84Y44.05
X58.23Y15.52
X58.32Y13.572
X58.4Y59.31
X58.51Y49.132
X58.96Y69.31
X59.05Y27.71
X59.54Y24.49
X59.61Y22.56
X59.62Y53.82
X59.65Y16.12
X59.66Y10.78
X59.67Y51.43
X59.7Y26.3
X59.81Y18.7
X60.83Y60.82
X61.46Y46.53
X61.66Y36.54
X62.02Y75.6
X62.11Y15.79
X62.13Y41.38
X62.15Y13.51
X62.26Y20.97
X62.36Y18.63
X62.4Y28.53
X62.43Y33.72
X62.43Y26.94
X62.47Y31.34
X63.02Y84.14
X63.16Y60.81
X63.21Y23.73
X63.3Y63.58
X63.81Y1.15
X64.21Y15.86
X64.24Y48.99
X64.34Y46.58
X64.34Y18.1
X64.42Y13.55
X64.76Y90.93
X65.17Y28.82
X65.21Y27.71
X65.32Y25.2
X65.45Y40.17
X65.47Y52.14
X65.48Y31.35
X65.64Y75.78
X65.74Y62.87
X65.75Y69.33
X65.76Y60.92
X65.85Y30.17
X66.04Y36.54
X66.07Y34.3
X66.25Y48.88
X66.29Y41.85
X66.36Y44.72
X66.39Y43.45
X66.4Y28.8
X66.51Y88.25
X66.61Y49.98
X66.62Y17.14
X66.71Y18.57
X67.24Y82.02
X68.27Y73.77
X68.36Y75.81
X68.72Y61.52
X68.77Y89.53
X69.47Y77.13
X70.24Y47.17
X70.8Y63.86
X70.82Y26.64
X70.89Y23.66
X71.93Y1.17
X72.03Y15.59
X72.39Y13.318
X72.93Y53.7
X73.17Y47.19
X73.32Y51.57
X73.35Y68.17
X73.35Y61.98
X73.39Y48.99
X73.41Y17.86
X73.42Y4.87
X73.46Y44.87
X73.62Y15.86
X73.62Y11.67
X73.67Y63.75
X73.96Y75.56
X74.45Y89.82
X75.9Y64.85
X75.92Y56.28
X76.94Y92.3
X77.07Y10.86
X77.15Y68.11
X77.54Y3.26
X78.29Y64.54
X78.29Y56.29
X78.43Y72.95
X78.82Y69.15
X79.07Y40.67
X79.68Y14.44
X79.93Y33.65
X80.48Y21.13
X80.64Y24.77
X80.83Y3.07
X80.86Y28.14
X80.98Y31.11
X81.23Y64.39
X81.27Y83.92
X81.33Y13.318
X81.98Y50.13
X82.0Y57.26
X82.04Y15.34
X82.16Y89.11
X82.24Y53.69
X82.41Y74.51
X82.52Y36.18
X83.01Y30.98
X83.15Y28.28
X83.16Y33.7
X83.24Y57.17
X83.32Y21.48
X83.33Y43.66
X83.33Y38.4
X83.37Y47.56
X83.41Y23.99
X83.86Y64.22
X83.96Y60.91
X84.23Y56.37
X84.23Y26.02
X84.27Y19.46
X84.67Y18.12
X84.72Y15.45
X85.292Y57.23
X85.68Y67.99
X85.74Y71.12
X85.861Y62.87
X85.97Y22.385
X86.51Y16.64
X86.81Y76.29
X87.87Y95.89
X88.34Y28.33
X88.5Y31.14
X88.51Y51.4
X88.72Y21.15
X88.73Y38.47
X88.74Y23.97
X88.76Y40.99
X88.8Y43.8
X88.87Y33.34
X88.9Y36.09
X88.93Y18.48
X88.98Y47.67
X88.98Y2.1
X89.44Y71.67
X90.35Y11.0
X90.47Y58.32
X93.45Y30.16
X93.63Y46.32
X93.63Y38.51
X93.66Y20.08
X94.8Y84.28
X95.15Y50.79
X95.54Y78.28
X96.43Y59.0
X96.75Y71.89
X96.84Y8.92
T2
X3.98Y73.78
X7.125Y26.2
X11.0Y96.32
X46.98Y27.03
X50.16Y63.82
X52.97Y80.94
X54.91Y96.32
X54.91Y85.93
X54.91Y80.94
X64.76Y80.94
X75.05Y54.762
X76.83Y80.94
X87.39Y58.673
T3
X5.71Y69.18
X5.71Y61.56
X8.756Y69.198
X8.756Y61.578
X13.836Y94.09
X13.836Y91.55
X13.836Y89.01
X13.836Y86.47
X13.836Y83.93
X13.836Y81.39
X13.836Y78.85
X13.836Y76.31
X13.836Y73.77
X13.836Y70.214
X13.836Y67.674
X13.836Y65.134
X13.836Y62.594
X13.836Y60.054
X13.836Y57.514
X13.836Y54.974
X13.836Y52.434
X13.836Y49.894
X16.62Y94.09
X16.62Y91.55
X16.62Y89.01
X16.62Y86.47
X16.62Y83.93
X16.62Y81.39
X16.62Y78.85
X16.62Y76.31
X16.62Y73.77
X16.62Y71.23
X16.62Y68.69
X16.62Y66.15
X16.62Y63.61
X16.62Y61.07
X16.62Y58.53
X16.62Y55.99
X16.62Y53.45
X16.62Y50.91
X16.62Y48.37
X16.62Y45.83
X18.283Y28.66
X18.283Y26.16
X28.951Y28.66
X28.951Y26.16
X31.86Y94.09
X31.86Y91.55
X31.86Y89.01
X31.86Y86.47
X31.86Y83.93
X31.86Y81.39
X31.86Y78.85
X31.86Y76.31
X31.86Y73.77
X31.86Y71.23
X31.86Y68.69
X31.86Y66.15
X31.86Y63.61
X31.86Y61.07
X31.86Y58.53
X31.86Y55.99
X31.86Y53.45
X31.86Y50.91
X31.86Y48.37
X31.86Y45.83
X34.49Y94.09
X34.49Y91.59
X37.458Y63.864
X37.458Y61.324
X37.458Y58.784
X37.458Y56.244
X37.458Y53.704
X37.458Y51.164
X37.458Y48.624
X37.722Y85.967
X37.722Y83.427
X37.722Y80.887
X37.722Y78.347
X37.722Y75.807
X37.722Y73.267
X37.722Y70.727
X38.474Y27.034
X38.474Y19.414
X45.078Y63.864
X45.078Y61.324
X45.078Y58.784
X45.078Y56.244
X45.078Y53.704
X45.078Y51.164
X45.078Y48.624
X45.342Y85.967
X45.342Y83.427
X45.342Y80.887
X45.342Y78.347
X45.342Y75.807
X45.342Y73.267
X45.342Y70.727
X47.618Y63.819
X47.618Y61.319
X47.882Y85.927
X47.882Y83.427
X52.952Y74.786
X52.952Y72.246
X52.952Y69.706
X52.952Y67.166
X52.952Y64.626
X52.952Y62.086
X52.952Y59.546
X52.952Y57.006
X52.952Y54.466
X53.455Y51.672
X53.455Y49.132
X53.455Y46.592
X53.455Y44.052
X53.455Y41.512
X53.455Y38.972
X53.455Y36.432
X53.455Y33.892
X53.455Y31.352
X53.455Y28.812
X53.455Y26.272
X53.455Y23.732
X53.455Y21.192
X53.455Y18.652
X53.455Y16.112
X53.455Y13.572
X57.14Y87.13
X57.14Y83.96
X57.51Y78.78
X57.51Y76.28
X57.56Y66.64
X57.56Y64.14
X60.65Y78.79
X60.65Y71.17
X60.66Y66.64
X60.66Y59.02
X63.19Y78.79
X63.19Y71.17
X63.2Y66.64
X63.2Y59.02
X64.76Y87.13
X64.76Y83.96
X65.73Y78.79
X65.73Y71.17
X65.74Y66.64
X65.74Y59.02
X66.2Y54.762
X68.27Y78.79
X68.27Y71.17
X68.28Y66.64
X68.28Y59.02
X68.695Y51.672
X68.695Y49.132
X68.695Y46.592
X68.695Y44.052
X68.695Y41.512
X68.695Y38.972
X68.695Y36.432
X68.695Y33.892
X68.695Y31.352
X68.695Y28.812
X68.695Y26.272
X68.695Y23.732
X68.695Y21.192
X68.695Y18.652
X68.695Y16.112
X68.695Y13.572
X68.7Y54.762
X69.205Y87.12
X69.205Y83.945
X70.81Y78.79
X70.81Y71.17
X70.82Y66.64
X70.82Y59.02
X73.35Y78.79
X73.35Y71.17
X73.36Y66.64
X73.36Y59.02
X73.526Y41.258
X73.526Y38.718
X73.526Y36.178
X73.526Y33.638
X73.526Y31.098
X73.526Y28.558
X73.526Y26.018
X73.526Y23.478
X73.526Y20.938
X75.89Y78.79
X75.89Y71.17
X75.9Y66.64
X75.9Y59.02
X76.315Y51.418
X76.315Y48.878
X76.315Y46.338
X76.315Y43.798
X76.315Y41.258
X76.315Y38.718
X76.315Y36.178
X76.315Y33.638
X76.315Y31.098
X76.315Y28.558
X76.315Y26.018
X76.315Y23.478
X76.315Y20.938
X76.315Y18.398
X76.315Y15.858
X76.315Y13.318
X76.825Y87.12
X76.825Y83.945
X78.43Y78.79
X78.43Y71.17
X78.44Y66.64
X78.44Y59.02
X79.33Y93.69
X80.97Y78.79
X80.97Y71.17
X80.98Y66.64
X80.98Y59.02
X81.83Y93.69
X83.51Y78.79
X83.51Y71.17
X83.52Y66.64
X83.52Y59.02
X89.045Y54.518
X91.545Y54.518
X91.555Y51.418
X91.555Y48.878
X91.555Y46.338
X91.555Y43.798
X91.555Y41.258
X91.555Y38.718
X91.555Y36.178
X91.555Y33.638
X91.555Y31.098
X91.555Y28.558
X91.555Y26.018
X91.555Y23.478
X91.555Y20.938
X91.555Y18.398
X91.555Y15.858
X91.555Y13.318
X94.78Y56.11
X94.78Y53.57
X95.77Y28.38
X95.77Y20.76
X95.77Y18.14
X95.77Y13.06
T4
X59.669Y94.062
X62.209Y94.062
X66.019Y94.062
X68.559Y94.062
X72.369Y94.062
X74.909Y94.062
T5
X4.64Y82.72
X4.64Y80.18
X4.64Y77.64
X8.756Y54.466
X8.756Y51.926
X8.756Y49.386
X8.756Y46.846
X8.756Y44.306
X8.756Y41.766
X11.42Y7.11
X11.42Y4.57
X12.187Y33.78
X12.187Y31.24
X12.187Y28.7
X12.187Y26.16
X12.187Y23.62
X12.187Y21.08
X13.96Y7.11
X13.96Y4.57
X14.727Y33.78
X14.727Y31.24
X14.727Y28.7
X14.727Y26.16
X14.727Y23.62
X14.727Y21.08
X16.5Y7.11
X16.5Y4.57
X17.267Y38.86
X17.267Y36.32
X17.267Y18.54
X17.267Y16.0
X19.04Y7.11
X19.04Y4.57
X19.807Y38.86
X19.807Y36.32
X19.807Y18.54
X19.807Y16.0
X21.58Y7.11
X21.58Y4.57
X22.347Y38.86
X22.347Y36.32
X22.347Y18.54
X22.347Y16.0
X24.12Y7.11
X24.12Y4.57
X24.887Y38.86
X24.887Y36.32
X24.887Y18.54
X24.887Y16.0
X26.66Y7.11
X26.66Y4.57
X27.427Y38.86
X27.427Y36.32
X27.427Y18.54
X27.427Y16.0
X29.2Y7.11
X29.2Y4.57
X29.967Y38.86
X29.967Y36.32
X29.967Y18.54
X29.967Y16.0
X31.74Y7.11
X31.74Y4.57
X32.507Y33.78
X32.507Y31.24
X32.507Y28.7
X32.507Y26.16
X32.507Y23.62
X32.507Y21.08
X34.28Y7.11
X34.28Y4.57
X35.047Y33.78
X35.047Y31.24
X35.047Y28.7
X35.047Y26.16
X35.047Y23.62
X35.047Y21.08
X36.82Y7.11
X36.82Y4.57
X39.308Y93.59
X39.36Y7.11
X39.36Y4.57
X41.848Y93.59
X41.9Y7.11
X41.9Y4.57
X44.388Y93.59
X44.44Y7.11
X44.44Y4.57
X46.928Y93.59
X46.98Y7.11
X46.98Y4.57
X49.468Y93.59
X49.52Y7.11
X49.52Y4.57
X52.008Y93.59
X52.06Y7.11
X52.06Y4.57
X54.6Y7.11
X54.6Y4.57
X57.14Y7.11
X57.14Y4.57
X59.68Y7.11
X59.68Y4.57
X62.22Y7.11
X62.22Y4.57
X64.76Y7.11
X64.76Y4.57
X67.3Y7.11
X67.3Y4.57
X69.84Y7.11
X69.84Y4.57
X75.01Y8.56
X77.55Y8.56
X80.09Y8.56
X82.63Y8.56
X85.17Y8.56
X87.71Y8.56
X89.84Y74.89
X90.05Y68.59
X90.05Y62.09
X92.38Y74.89
X94.55Y68.59
X94.55Y62.09
X94.92Y74.89
T6
X5.08Y93.92
X5.08Y5.08
X93.92Y93.92
X93.92Y5.08
T5
G00X84.94Y83.92
M15
G01X84.94Y86.42
M16
G05
G00X89.14Y90.57
M15
G01X86.64Y90.57
M16
G05
G00X90.94Y83.92
M15
G01X90.94Y86.42
M16
G05
T0
M30
